<svg width="20" height="20" viewBox="0 0 20 20" fill="none" xmlns="http://www.w3.org/2000/svg">
<path fill-rule="evenodd" clip-rule="evenodd" d="M10.0108 14.6272L6.45197 17.3478C5.64657 17.9635 4.48764 17.3883 4.48597 16.376L4.48292 14.5232C2.82591 14.1247 1.59961 12.6286 1.59961 10.8511V6.17595C1.59961 4.09118 3.28444 2.3999 5.36432 2.3999H13.8349C15.9148 2.3999 17.5996 4.09118 17.5996 6.17595V10.8511C17.5996 12.9359 15.9148 14.6272 13.8349 14.6272H10.0108ZM6.08472 15.6145L9.25414 13.1916C9.39365 13.085 9.56439 13.0272 9.74 13.0272H13.8349C15.0298 13.0272 15.9996 12.0536 15.9996 10.8511V6.17595C15.9996 4.97347 15.0298 3.9999 13.8349 3.9999H5.36432C4.16947 3.9999 3.19961 4.97347 3.19961 6.17595V10.8511C3.19961 12.031 4.13486 12.9943 5.30372 13.0264C5.73632 13.0382 6.08106 13.392 6.08177 13.8247L6.08472 15.6145Z" fill="#92929D"/>
</svg>
