<svg width="25" height="24" viewBox="0 0 25 24" fill="none" xmlns="http://www.w3.org/2000/svg">
<path d="M12.3678 24.0007C19.1984 24.0007 24.7356 18.628 24.7356 12.0004C24.7356 5.37274 19.1984 0 12.3678 0C5.53725 0 0 5.37274 0 12.0004C0 18.628 5.53725 24.0007 12.3678 24.0007Z" fill="url(#paint0_linear_3319_86457)"/>
<path opacity="0.7" d="M12.3678 24.0007C19.1984 24.0007 24.7356 18.628 24.7356 12.0004C24.7356 5.37274 19.1984 0 12.3678 0C5.53725 0 0 5.37274 0 12.0004C0 18.628 5.53725 24.0007 12.3678 24.0007Z" fill="url(#paint1_radial_3319_86457)"/>
<defs>
<linearGradient id="paint0_linear_3319_86457" x1="0" y1="12.0004" x2="24.7356" y2="12.0004" gradientUnits="userSpaceOnUse">
<stop offset="0.011" stop-color="#7EEDBE"/>
<stop offset="0.121" stop-color="#6FDBB9"/>
<stop offset="0.356" stop-color="#56BDB0"/>
<stop offset="0.584" stop-color="#43A6AA"/>
<stop offset="0.803" stop-color="#3899A6"/>
<stop offset="1" stop-color="#3595A5"/>
</linearGradient>
<radialGradient id="paint1_radial_3319_86457" cx="0" cy="0" r="1" gradientUnits="userSpaceOnUse" gradientTransform="translate(6.90124 3.93611) scale(25.8487 25.0807)">
<stop offset="0.011" stop-color="#B3FFDC"/>
<stop offset="0.094" stop-color="#A0EFD3" stop-opacity="0.851"/>
<stop offset="0.232" stop-color="#84D7C7" stop-opacity="0.627"/>
<stop offset="0.37" stop-color="#6CC3BD" stop-opacity="0.435"/>
<stop offset="0.506" stop-color="#58B2B4" stop-opacity="0.278"/>
<stop offset="0.638" stop-color="#48A5AD" stop-opacity="0.157"/>
<stop offset="0.767" stop-color="#3D9CA8" stop-opacity="0.071"/>
<stop offset="0.89" stop-color="#3796A5" stop-opacity="0.02"/>
<stop offset="1" stop-color="#3595A5" stop-opacity="0"/>
</radialGradient>
</defs>
</svg>
