<svg width="20" height="20" viewBox="0 0 20 20" fill="none" xmlns="http://www.w3.org/2000/svg">
<path fill-rule="evenodd" clip-rule="evenodd" d="M9.99967 3.44095L10.1843 3.25117C12.2389 1.13861 15.5801 1.13861 17.6348 3.25117C19.6769 5.35076 19.6769 8.74555 17.6348 10.8452L11.1944 17.4669C10.5527 18.1267 9.49749 18.1414 8.83764 17.4996C8.82112 17.4834 8.82112 17.4834 8.80491 17.4669L2.36457 10.8452C0.322487 8.74555 0.322487 5.35076 2.36457 3.25117C4.41925 1.13861 7.7604 1.13861 9.81509 3.25117L9.99967 3.44095ZM16.44 9.68312C17.8529 8.23045 17.8529 5.86587 16.44 4.4132C15.0397 2.97349 12.7793 2.97349 11.379 4.4132L10.5971 5.21719C10.2698 5.55362 9.7295 5.55362 9.40229 5.21719L8.62032 4.4132C7.22005 2.97349 4.9596 2.97349 3.55933 4.4132C2.14646 5.86587 2.14646 8.23045 3.55933 9.68312L9.99967 16.3049L16.44 9.68312Z" fill="#92929D"/>
</svg>
