<svg width="41" height="41" viewBox="0 0 41 41" fill="none" xmlns="http://www.w3.org/2000/svg">
<path d="M20.9439 40.6555C31.99 40.6555 40.9445 31.7009 40.9445 20.6549C40.9445 9.60886 31.99 0.654297 20.9439 0.654297C9.89793 0.654297 0.943359 9.60886 0.943359 20.6549C0.943359 31.7009 9.89793 40.6555 20.9439 40.6555Z" fill="url(#paint0_linear_5280_1616)"/>
<path opacity="0.7" d="M20.9439 40.6555C31.99 40.6555 40.9445 31.7009 40.9445 20.6549C40.9445 9.60886 31.99 0.654297 20.9439 0.654297C9.89793 0.654297 0.943359 9.60886 0.943359 20.6549C0.943359 31.7009 9.89793 40.6555 20.9439 40.6555Z" fill="url(#paint1_radial_5280_1616)"/>
<defs>
<linearGradient id="paint0_linear_5280_1616" x1="0.943359" y1="20.6549" x2="40.9445" y2="20.6549" gradientUnits="userSpaceOnUse">
<stop offset="0.011" stop-color="#7EEDBE"/>
<stop offset="0.121" stop-color="#6FDBB9"/>
<stop offset="0.356" stop-color="#56BDB0"/>
<stop offset="0.584" stop-color="#43A6AA"/>
<stop offset="0.803" stop-color="#3899A6"/>
<stop offset="1" stop-color="#3595A5"/>
</linearGradient>
<radialGradient id="paint1_radial_5280_1616" cx="0" cy="0" r="1" gradientUnits="userSpaceOnUse" gradientTransform="translate(12.1037 7.21449) scale(41.8012)">
<stop offset="0.011" stop-color="#B3FFDC"/>
<stop offset="0.094" stop-color="#A0EFD3" stop-opacity="0.851"/>
<stop offset="0.232" stop-color="#84D7C7" stop-opacity="0.627"/>
<stop offset="0.37" stop-color="#6CC3BD" stop-opacity="0.435"/>
<stop offset="0.506" stop-color="#58B2B4" stop-opacity="0.278"/>
<stop offset="0.638" stop-color="#48A5AD" stop-opacity="0.157"/>
<stop offset="0.767" stop-color="#3D9CA8" stop-opacity="0.071"/>
<stop offset="0.89" stop-color="#3796A5" stop-opacity="0.02"/>
<stop offset="1" stop-color="#3595A5" stop-opacity="0"/>
</radialGradient>
</defs>
</svg>
