<svg width="16" height="16" viewBox="0 0 16 16" fill="none" xmlns="http://www.w3.org/2000/svg">
<path fill-rule="evenodd" clip-rule="evenodd" d="M6.94261 2.1143C7.4427 1.6142 8.12098 1.33325 8.82823 1.33325H12.6665C13.771 1.33325 14.6665 2.22868 14.6665 3.33325V7.17149C14.6665 7.87874 14.3855 8.55701 13.8854 9.05711L8.74735 14.1952C7.9663 14.9762 6.69997 14.9762 5.91892 14.1952L1.80454 10.0808C1.02349 9.29975 1.02349 8.03342 1.80454 7.25237L6.94261 2.1143ZM8.82823 2.66659C8.4746 2.66659 8.13547 2.80706 7.88542 3.05711L2.74735 8.19518C2.487 8.45553 2.487 8.87764 2.74734 9.13799L6.86173 13.2524C7.12208 13.5127 7.54419 13.5127 7.80454 13.2524L12.9426 8.1143C13.1927 7.86425 13.3331 7.52511 13.3331 7.17149V3.33325C13.3331 2.96506 13.0347 2.66659 12.6665 2.66659H8.82823Z" fill="#F4BF59"/>
<path d="M2.39062 6.66669L3.33343 5.72388L10.2762 12.6667L9.33343 13.6095L2.39062 6.66669Z" fill="#F4BF59"/>
<path fill-rule="evenodd" clip-rule="evenodd" d="M10 6.66667C10.3682 6.66667 10.6667 6.36819 10.6667 6C10.6667 5.63181 10.3682 5.33333 10 5.33333C9.63181 5.33333 9.33333 5.63181 9.33333 6C9.33333 6.36819 9.63181 6.66667 10 6.66667ZM10 8C11.1046 8 12 7.10457 12 6C12 4.89543 11.1046 4 10 4C8.89543 4 8 4.89543 8 6C8 7.10457 8.89543 8 10 8Z" fill="#F4BF59"/>
</svg>
